PathFileType  4	(X/Y/Z) C:\Users\antoi\Documents\MyRepositories\mobilecap\ResultsAnalysis
DataRate	CameraRate	NumFrames	NumMarkers	Units	OrigDataRate	OrigDataStartFrame	OrigNumFrames
100.0	100.0	6	51	mm	100.0	661	1321
Frame#	Time	r_knee			r_shank_antsup			r_ankle			r_calc			r_5meta			r_toe			L_knee			L_shank_antsup			L_ankle			L_calc			L_5meta			L_toe			r_sh2			r_sh3			r_sh4			L_sh2			L_sh3			r_thigh1			r_thigh2			r_thigh3			r_thigh4			r_thigh5			L_thigh1			L_thigh2			L_thigh3			L_thigh4			r.ASIS			r.PSIS			L.ASIS			L.PSIS			C7			R_Shoulder			L_Shoulder			R_Sternum			L_Sternum			R_humerus			R_elbow_med			R_elbow_lat			R_forearm			R_wrist_radius			R_wrist_ulna			L_humerus			L_elbow_med			L_elbow_lat			L_forearm			L_wrist_radius			L_wrist_ulna			R_HJC			L_HJC			R_HJC_reg			L_HJC_reg			
		X1	Y1	Z1	X2	Y2	Z2	X3	Y3	Z3	X4	Y4	Z4	X5	Y5	Z5	X6	Y6	Z6	X7	Y7	Z7	X8	Y8	Z8	X9	Y9	Z9	X10	Y10	Z10	X11	Y11	Z11	X12	Y12	Z12	X13	Y13	Z13	X14	Y14	Z14	X15	Y15	Z15	X16	Y16	Z16	X17	Y17	Z17	X18	Y18	Z18	X19	Y19	Z19	X20	Y20	Z20	X21	Y21	Z21	X22	Y22	Z22	X23	Y23	Z23	X24	Y24	Z24	X25	Y25	Z25	X26	Y26	Z26	X27	Y27	Z27	X28	Y28	Z28	X29	Y29	Z29	X30	Y30	Z30	X31	Y31	Z31	X32	Y32	Z32	X33	Y33	Z33	X34	Y34	Z34	X35	Y35	Z35	X36	Y36	Z36	X37	Y37	Z37	X38	Y38	Z38	X39	Y39	Z39	X40	Y40	Z40	X41	Y41	Z41	X42	Y42	Z42	X43	Y43	Z43	X44	Y44	Z44	X45	Y45	Z45	X46	Y46	Z46	X47	Y47	Z47	X48	Y48	Z48	X49	Y49	Z49	X50	Y50	Z50	X51	Y51	Z51	

661	6.60000000	-237.89799	477.42272	-437.00114	-201.75292	417.21883	-429.80829	-254.31079	82.66805	-427.45493	-306.49924	52.42775	-474.50312	-146.33911	42.97936	-399.27395	-108.65164	67.08650	-450.17443	-222.53451	476.96152	-752.74582	-181.32084	394.45447	-746.14947	-240.85092	90.69139	-765.27970	-294.85393	51.16915	-718.73943	-139.49319	43.23049	-798.99362	-86.86423	60.12015	-746.88148	-218.69442	305.90305	-416.64427	-274.33106	432.03673	-413.21513	-298.62515	315.61069	-405.42642	-260.47983	414.87469	-785.08081	-267.15427	292.92223	-800.05804	-210.88050	733.89090	-400.14130	-199.36042	620.91827	-411.02026	-259.57026	593.16272	-413.95803	-320.81866	723.03379	-423.69855	-304.46959	609.07660	-441.17407	-198.67323	760.41689	-795.83390	-181.25749	622.82102	-776.90905	-310.20062	747.24710	-788.09424	-292.72939	614.54221	-752.08826	-164.11786	932.19911	-483.73299	-369.79210	962.53521	-564.05482	-159.49030	939.52384	-706.48607	-366.87850	963.17366	-646.20960	-276.19102	1403.27722	-598.68508	-223.42327	1376.15675	-455.12863	-213.48161	1371.44492	-739.34086	-151.45317	1345.78917	-572.62482	-155.01609	1339.85328	-606.70851	-169.20277	1282.64771	-393.64165	-136.83170	1063.48863	-393.81830	-110.92719	1093.44000	-336.98781	-18.37392	1112.35967	-338.67020	118.29501	1099.79098	-371.81072	116.89614	1063.45082	-359.28811	-173.26632	1278.18096	-807.59388	-116.63582	1057.48741	-797.39376	-99.58915	1093.07917	-852.95480	6.28815	1097.94383	-844.81958	126.53841	1093.51766	-807.11236	125.18300	1054.30230	-816.68982	-245.00684	844.63455	-496.33427	-238.52608	852.93773	-703.57419	-234.95003	866.71787	-517.32370	-229.73551	867.86054	-664.35500	
662	6.61000000	-237.99060	477.42829	-437.12781	-201.81831	417.23714	-429.80979	-254.32472	82.66379	-427.45581	-306.50641	52.44490	-474.46319	-146.35815	42.95363	-399.27850	-108.64240	67.04812	-450.13691	-222.65616	476.95497	-752.90799	-181.40850	394.43677	-746.31878	-240.86124	90.65472	-765.27607	-294.86573	51.13915	-718.73118	-139.49781	43.22844	-799.00340	-86.90590	60.11296	-746.89810	-218.76823	305.92486	-416.60325	-274.80989	431.47054	-413.39002	-298.64327	315.67786	-405.45653	-260.64433	414.73568	-784.91847	-267.25700	292.98486	-800.02704	-210.90410	733.78966	-400.32409	-199.34534	621.00874	-411.03277	-259.72783	593.10589	-414.19385	-320.94484	723.20530	-424.11621	-304.70320	609.42801	-441.03815	-198.94823	760.28342	-795.97972	-181.50700	622.77690	-777.13255	-310.43926	747.18508	-787.77522	-292.86327	614.51939	-751.95261	-163.91784	932.09454	-483.91224	-369.54126	962.55641	-564.08231	-159.43696	939.47337	-706.89482	-366.75439	963.22845	-646.33228	-275.68645	1403.34211	-598.89990	-222.80791	1376.03436	-455.37808	-213.11721	1371.44934	-739.43554	-150.90886	1345.75700	-572.90015	-154.58106	1339.85306	-606.87245	-168.61177	1282.54220	-393.92524	-136.08322	1063.51739	-394.41416	-110.15936	1093.30984	-337.50059	-17.64145	1112.17318	-339.28986	119.04098	1099.48305	-372.57631	117.64881	1063.15876	-360.15097	-172.65200	1278.16862	-807.77569	-115.84932	1057.35271	-796.83847	-98.84429	1093.04576	-852.78927	7.10538	1097.76797	-844.60691	127.35792	1093.32351	-806.91492	125.72949	1054.29750	-817.45280	-244.81418	844.57607	-496.56481	-238.52167	852.92947	-703.80851	-234.73683	866.57760	-517.45609	-229.74985	867.78028	-664.64526	
663	6.62000000	-238.06617	477.42028	-437.27614	-201.87878	417.27280	-429.83984	-254.33133	82.60702	-427.52446	-306.52440	52.48846	-474.37981	-146.36000	42.99713	-399.28869	-108.66242	67.08730	-450.16988	-222.73944	476.93688	-753.01441	-181.44291	394.47466	-746.51869	-240.85723	90.64078	-765.27633	-294.90173	51.10433	-718.72682	-139.49677	43.22788	-798.99908	-86.90643	60.11847	-746.91268	-218.88234	306.11313	-416.45399	-275.67511	430.56063	-413.61177	-298.68394	315.72318	-405.49423	-260.71208	414.74627	-784.98016	-267.27540	293.08538	-800.07709	-210.98315	733.69137	-400.47164	-199.42161	621.11078	-411.10133	-259.80717	593.09828	-414.32440	-320.98860	723.31794	-424.31559	-304.61729	609.30509	-441.51495	-199.18093	760.16862	-796.13649	-181.71080	622.77865	-777.43813	-310.59624	747.15382	-787.71746	-292.97354	614.50478	-751.95351	-163.77136	931.97473	-484.09698	-369.31478	962.63695	-564.13567	-159.41786	939.45399	-707.24088	-366.67541	963.37119	-646.45324	-275.13975	1403.37964	-599.15281	-222.23204	1375.94099	-455.57893	-212.72793	1371.43793	-739.46730	-150.31452	1345.73354	-573.14476	-154.14094	1339.86148	-607.07580	-167.99385	1282.46057	-394.12782	-135.51953	1063.57387	-394.96853	-109.34865	1093.17922	-338.03550	-16.89217	1111.99405	-339.89285	119.78670	1099.25505	-373.39550	118.37264	1062.90574	-361.07681	-172.01905	1278.15947	-807.91382	-115.28635	1057.45621	-796.85886	-98.16392	1093.01149	-852.53819	7.79961	1097.63414	-844.40604	128.08715	1093.15003	-806.79341	126.29797	1054.19737	-817.75830	-244.70895	844.52898	-496.80753	-238.56992	852.97738	-704.05201	-234.56258	866.45522	-517.58857	-229.83979	867.76918	-664.89268	
664	6.63000000	-238.09074	477.42662	-437.37492	-201.88092	417.32020	-429.86855	-254.36939	82.58014	-427.56867	-306.54545	52.50789	-474.31538	-146.34931	43.07167	-399.29955	-108.68561	67.15047	-450.21562	-222.76729	476.90321	-753.10380	-181.43693	394.50320	-746.66587	-240.85446	90.64048	-765.27264	-294.90560	51.07951	-718.68603	-139.49063	43.23393	-798.99460	-86.84368	60.12245	-746.84540	-218.99425	306.31698	-416.32589	-276.42704	429.92450	-413.71783	-298.83873	315.59449	-405.57727	-260.68434	414.87162	-785.25421	-267.24392	293.11125	-800.14913	-211.14386	733.79812	-400.52337	-199.58075	621.12148	-411.25568	-259.85256	593.10377	-414.40743	-320.91719	723.34252	-424.34245	-304.38994	608.97750	-442.25592	-199.31671	760.10470	-796.30252	-181.84483	622.78047	-777.76151	-310.72051	747.18070	-787.89847	-293.05177	614.50911	-752.07166	-163.64405	931.86238	-484.38570	-369.14830	962.76854	-564.19111	-159.41979	939.37009	-707.39431	-366.59862	963.54529	-646.54103	-274.52874	1403.41684	-599.37748	-221.65113	1375.93456	-455.70688	-212.28062	1371.44529	-739.55724	-149.71053	1345.70930	-573.41501	-153.59301	1339.88178	-607.36669	-167.28085	1282.42741	-394.37107	-134.98626	1063.54030	-395.27416	-108.57358	1093.09566	-338.48736	-16.08412	1111.82327	-340.55203	120.46320	1099.03890	-374.25301	119.07716	1062.73269	-361.93325	-171.42694	1278.14061	-807.89870	-114.55220	1057.24159	-796.07709	-97.52345	1092.98028	-852.24720	8.40926	1097.52034	-844.14770	128.72963	1092.90144	-806.64540	126.85148	1053.94610	-817.58013	-244.67473	844.50962	-496.98988	-238.66637	852.99484	-704.23669	-234.47044	866.43035	-517.81074	-229.91232	867.81897	-665.02920	
665	6.64000000	-238.07211	477.45045	-437.40160	-201.82900	417.35916	-429.87254	-254.42838	82.61907	-427.54325	-306.56205	52.50102	-474.30386	-146.34177	43.09906	-399.30165	-108.68408	67.17990	-450.19780	-222.74295	476.88476	-753.23524	-181.40883	394.51127	-746.73508	-240.85087	90.65196	-765.27540	-294.90008	51.09532	-718.67668	-139.48468	43.24595	-798.98960	-86.80816	60.06567	-746.77111	-219.03427	306.35345	-416.34877	-276.52246	429.91537	-413.75191	-299.09343	315.33244	-405.71507	-260.59670	414.98104	-785.57826	-267.24403	293.07430	-800.22930	-211.19333	733.99483	-400.53222	-199.56947	621.05900	-411.42726	-259.82974	593.11468	-414.48727	-320.82936	723.29566	-424.34116	-304.28147	608.82524	-442.63609	-199.31430	760.10726	-796.47072	-181.88199	622.77757	-778.04271	-310.76253	747.34902	-788.42419	-293.08258	614.51626	-752.22514	-163.52732	931.77961	-484.74187	-369.00574	962.89913	-564.18200	-159.43874	939.24195	-707.47881	-366.54259	963.71028	-646.56141	-273.92870	1403.48565	-599.50721	-221.00219	1375.94509	-455.83220	-211.83448	1371.50484	-739.66762	-149.14904	1345.70893	-573.66943	-153.00952	1339.87884	-607.65241	-166.48259	1282.41245	-394.72895	-134.30092	1063.46581	-395.48488	-107.84563	1093.04252	-338.93557	-15.29523	1111.65497	-341.19321	121.10085	1098.79955	-375.16438	119.76129	1062.59370	-362.66098	-170.95976	1278.15187	-807.83813	-113.77518	1056.92427	-795.00940	-96.95792	1092.94858	-852.01700	8.95436	1097.36869	-843.87087	129.31576	1092.56711	-806.47564	127.37026	1053.57948	-817.07529	-244.63868	844.51067	-497.11587	-238.80561	852.97870	-704.36836	-234.38198	866.44018	-518.07330	-229.98536	867.88800	-665.11403	
666	6.65000000	-237.99927	477.46054	-437.44651	-201.76865	417.37202	-429.89371	-254.43143	82.63723	-427.51657	-306.56779	52.51710	-474.31255	-146.32846	43.07575	-399.28859	-108.67500	67.18881	-450.15803	-222.68774	476.88485	-753.35083	-181.36250	394.53505	-746.78728	-240.83927	90.67889	-765.28762	-294.91856	51.12635	-718.70548	-139.48144	43.26352	-798.98051	-86.84362	59.96840	-746.76300	-218.95561	306.27517	-416.51246	-275.83769	430.46144	-413.76231	-299.28070	315.14978	-405.85520	-260.47650	415.02782	-785.85450	-267.28039	292.97368	-800.30643	-211.07622	734.09504	-400.53720	-199.27006	621.06776	-411.54718	-259.70300	593.13531	-414.57158	-320.76590	723.19126	-424.33612	-304.24261	608.84692	-442.60955	-199.19394	760.14780	-796.58228	-181.79195	622.77484	-778.22325	-310.62715	747.56468	-789.16835	-293.05641	614.50255	-752.35595	-163.42922	931.69817	-485.08154	-368.87910	963.04581	-564.14616	-159.47287	939.20317	-707.68250	-366.52743	963.88035	-646.54585	-273.43704	1403.54344	-599.56405	-220.34564	1375.89977	-456.03152	-211.40090	1371.61802	-739.78565	-148.64667	1345.71204	-573.77685	-152.50714	1339.82014	-607.82205	-165.68124	1282.37407	-395.13697	-133.62926	1063.42646	-395.73435	-107.11141	1092.94236	-339.44064	-14.60795	1111.50111	-341.70913	121.75137	1098.58263	-376.09096	120.40092	1062.36808	-363.36668	-170.55928	1278.19356	-807.82245	-113.30498	1056.97419	-794.84046	-96.48881	1092.92850	-851.88288	9.42586	1097.21589	-843.68928	129.85272	1092.20571	-806.38500	127.91902	1053.09186	-816.16852	-244.58303	844.50799	-497.29219	-238.97350	853.03087	-704.54859	-234.30426	866.47387	-518.31112	-230.11024	867.96229	-665.26700	
